PathFileType	4	(x/y/z)	A01_SLOW_T0026.trc
DataRate	CameraRate	NumFrames	NumMarkers	Units	OrigDataRate	OrigDataStartFrame	OrigNumFrames
240	240	7	48	mm	240	271	361
Frame#	Time	TOP_HEAD			R_AC			L_AC			R_ASIS			L_ASIS			R_PSIS			L_PSIS			SACRAL			L_IC			R_IC			L_GT			R_GT			R_LAT_KNEE			R_MED_KNEE			L_MED_KNEE			L_LAT_KNEE			R_TOE			L_TOE			R_1ST_MET			L_1ST_MET			L_5TH_MET			R_5TH_MET			R_LAT_ANK			R_MED_ANK			L_MED_ANK			L_LAT_ANK			L_HEEL_SUP			R_HEEL_SUP			L_HEEL_LAT			R_HEEL_LAT			L_HEEL_MED			R_HEEL_MED			R_LL_PROX_POST			R_LL_PROX_ANT			R_LL_DIST_ANT			R_LL_DIST_POST			R_THIGH_PROX_POST			R_THIGH_PROX_ANT			R_THIGH_DIST_ANT			R_THIGH_DIST_POST			L_PROS_PROX_ANT			L_PROS_PROX_POST			L_PROS_DIST_POST			L_PROS_DIST_ANT			L_THIGH_PROX_ANT			L_THIGH_PROX_POST			L_THIGH_DIST_POST			L_THIGH_DIST_ANT			
		X1	Y1	Z1	X2	Y2	Z2	X3	Y3	Z3	X4	Y4	Z4	X5	Y5	Z5	X6	Y6	Z6	X7	Y7	Z7	X8	Y8	Z8	X9	Y9	Z9	X10	Y10	Z10	X11	Y11	Z11	X12	Y12	Z12	X13	Y13	Z13	X14	Y14	Z14	X15	Y15	Z15	X16	Y16	Z16	X17	Y17	Z17	X18	Y18	Z18	X19	Y19	Z19	X20	Y20	Z20	X21	Y21	Z21	X22	Y22	Z22	X23	Y23	Z23	X24	Y24	Z24	X25	Y25	Z25	X26	Y26	Z26	X27	Y27	Z27	X28	Y28	Z28	X29	Y29	Z29	X30	Y30	Z30	X31	Y31	Z31	X32	Y32	Z32	X33	Y33	Z33	X34	Y34	Z34	X35	Y35	Z35	X36	Y36	Z36	X37	Y37	Z37	X38	Y38	Z38	X39	Y39	Z39	X40	Y40	Z40	X41	Y41	Z41	X42	Y42	Z42	X43	Y43	Z43	X44	Y44	Z44	X45	Y45	Z45	X46	Y46	Z46	X47	Y47	Z47	X48	Y48	Z48	

271	1.1281	572.1	1787.9	400.27	376.46	1549	604.05	316.92	1582.5	145.69	374.51	1099.9	564.56	349.42	1050.7	211.82	145.53	1105.4	456	147.78	1103.4	324.31	131.36	1074.8	388.67	312.26	1176.6	176.86	345.57	1193.8	580.6	291.89	971.04	171.09	311.57	987.6	604.24	314	579.38	529.2	342.56	582.39	398.82	438.72	560.68	342.3	390.28	601.77	196.96	495.64	67.683	416.56	253.73	81.314	206.08	409.41	55.919	372.01	189.36	96.427	282.13	131.59	127.73	169.88	384.85	46.174	508.45	275.99	114.35	486.26	272.15	121.1	384.35	138.34	238.67	301.53	93.53	257.25	245.48	10.568	260.27	310.77	170.25	87.156	433.53	-8.1458	238.19	278.61	177.59	62.24	467.46	13.202	221.74	336.93	179	60.699	406.7	217.1	405.63	527.27	287.44	393.81	543.76	288.03	320.42	523.16	231.04	324.64	514.38	271.18	843.94	577.83	340.58	864.1	588.36	345.79	772.97	575.37	280.1	755.55	563.17	381.74	507.13	197.88	335.82	538.95	201.84	296.54	490.07	213.1	344.68	465.21	207.28	394.98	841.4	193.75	324.92	833.27	177.83	351.54	761.43	183.45	415.06	770.14	197.22
272	1.1323	575.98	1788.4	400.35	380.26	1549.9	604.08	320.28	1582.9	145.74	378.18	1100.3	564.79	353.51	1051.5	212.02	149.24	1106	455.81	151.66	1103.7	324.15	135.22	1075.2	388.45	315.73	1176.9	176.72	349.21	1194.6	580.82	296.47	971.77	171.12	314.85	988.06	604.3	315.44	579.83	529.24	344.04	582.74	398.85	444.95	562.9	343.1	397.11	602.72	197.17	495.75	67.597	416.58	268.54	80.237	206.85	409.52	55.924	372.03	203.26	94.664	282.22	146.05	124.61	169.32	384.93	46.184	508.46	276.38	114.79	486.29	272.58	121.59	384.41	149.93	236.12	300.68	105.24	253.83	244.1	21.626	255.79	308.55	170.54	87.99	433.61	3.6425	233.27	276.27	177.73	63.049	467.54	24.71	217.35	334.89	179.07	61.522	406.69	218.11	406.31	527.28	288.43	394.31	543.76	288.86	320.94	523.19	231.87	325.28	514.41	273.9	844.64	577.82	343.38	864.49	588.41	348.18	773.33	575.4	282.39	756.21	563.18	390.01	508	198.33	343.58	539.1	201.77	304.97	489.63	212.86	353.55	465.52	207.54	400.48	842.72	194.08	330.61	834.22	177.79	357.6	762.55	183.53	420.98	771.6	197.61
273	1.1365	579.85	1788.8	400.42	384.04	1550.7	604.12	323.63	1583.3	145.8	381.83	1100.8	565.02	357.62	1052.3	212.2	152.94	1106.5	455.58	155.55	1104.1	323.96	139.08	1075.6	388.19	319.31	1177.3	176.6	352.83	1195.4	581.01	301.06	972.47	171.15	318.1	988.51	604.36	316.9	580.28	529.28	345.54	583.09	398.88	451.08	565.07	343.92	403.85	603.65	197.41	495.85	67.514	416.6	283.46	79.213	207.62	409.64	55.932	372.05	217.28	92.896	282.32	160.64	121.49	168.77	385.01	46.194	508.47	276.79	115.23	486.33	273	122.08	384.48	161.59	233.5	299.84	117.06	250.35	242.74	32.807	251.2	306.34	170.82	88.834	433.69	15.568	228.24	273.94	177.85	63.872	467.63	36.348	212.85	332.85	179.12	62.353	406.69	219.15	406.99	527.29	289.45	394.82	543.76	289.7	321.46	523.22	232.73	325.92	514.44	276.63	845.33	577.81	346.18	864.87	588.45	350.57	773.68	575.43	284.69	756.87	563.18	398.22	508.86	198.8	351.28	539.21	201.73	313.37	489.15	212.65	362.37	465.82	207.83	405.92	844	194.44	336.26	835.15	177.75	363.6	763.65	183.62	426.85	773.01	198.03
274	1.1407	583.71	1789.3	400.46	387.78	1551.5	604.15	326.98	1583.8	145.85	385.44	1101.2	565.23	361.75	1053.1	212.38	156.63	1107	455.33	159.43	1104.5	323.74	142.93	1076	387.91	322.99	1177.6	176.5	356.42	1196.2	581.18	305.64	973.15	171.16	321.33	988.96	604.42	318.38	580.73	529.31	347.08	583.43	398.9	457.1	567.19	344.76	410.48	604.53	197.68	495.95	67.432	416.62	298.49	78.251	208.41	409.76	55.944	372.06	231.42	91.132	282.42	175.36	118.4	168.24	385.1	46.205	508.48	277.2	115.69	486.36	273.44	122.57	384.55	173.33	230.82	299.02	128.97	246.81	241.4	44.115	246.49	304.15	171.09	89.685	433.78	27.63	223.11	271.64	177.95	64.705	467.72	48.119	208.24	330.82	179.15	63.19	406.69	220.2	407.68	527.31	290.49	395.33	543.77	290.56	321.98	523.26	233.61	326.57	514.48	279.36	846.01	577.78	348.98	865.25	588.48	352.97	774.04	575.44	287.01	757.51	563.18	406.35	509.71	199.31	358.91	539.29	201.71	321.73	488.63	212.46	371.15	466.11	208.14	411.3	845.24	194.82	341.86	836.05	177.73	369.54	764.72	183.74	432.66	774.39	198.46
275	1.1448	587.56	1789.7	400.48	391.5	1552.3	604.18	330.31	1584.2	145.91	389.01	1101.6	565.44	365.87	1053.8	212.55	160.31	1107.5	455.05	163.32	1104.8	323.5	146.78	1076.4	387.6	326.75	1177.9	176.42	359.97	1197	581.33	310.22	973.81	171.16	324.54	989.4	604.46	319.89	581.18	529.33	348.64	583.78	398.92	463.01	569.25	345.62	417.02	605.39	197.99	496.05	67.353	416.64	313.6	77.36	209.19	409.88	55.959	372.08	245.66	89.379	282.52	190.21	115.33	167.72	385.18	46.216	508.49	277.61	116.14	486.39	273.87	123.07	384.62	185.13	228.09	298.22	140.97	243.23	240.07	55.552	241.67	301.98	171.36	90.541	433.88	39.828	217.88	269.38	178.04	65.544	467.82	60.026	203.52	328.81	179.15	64.032	406.69	221.28	408.37	527.33	291.55	395.85	543.77	291.44	322.51	523.3	234.51	327.22	514.52	282.1	846.68	577.75	351.77	865.62	588.49	355.37	774.39	575.45	289.35	758.15	563.17	414.42	510.55	199.84	366.48	539.33	201.73	330.06	488.07	212.3	379.88	466.38	208.47	416.64	846.45	195.21	347.43	836.93	177.71	375.41	765.76	183.87	438.41	775.72	198.9
276	1.149	591.39	1790.1	400.49	395.2	1553	604.2	333.65	1584.5	145.96	392.54	1102	565.64	370.01	1054.5	212.71	163.98	1108	454.76	167.2	1105.2	323.24	150.62	1076.8	387.27	330.59	1178.2	176.36	363.5	1197.7	581.46	314.79	974.45	171.14	327.74	989.84	604.49	321.42	581.62	529.35	350.22	584.11	398.94	468.81	571.24	346.48	423.46	606.2	198.33	496.14	67.277	416.66	328.8	76.548	209.97	410.01	55.977	372.09	260	87.646	282.62	205.17	112.31	167.22	385.27	46.227	508.5	278.04	116.6	486.42	274.3	123.58	384.69	197	225.32	297.43	153.07	239.61	238.77	67.119	236.76	299.84	171.62	91.4	433.98	52.16	212.57	267.15	178.13	66.388	467.92	72.069	198.72	326.82	179.13	64.876	406.7	222.39	409.06	527.35	292.63	396.37	543.77	292.32	323.03	523.34	235.43	327.87	514.57	284.85	847.34	577.72	354.57	865.98	588.48	357.78	774.75	575.44	291.7	758.77	563.15	422.41	511.38	200.39	373.98	539.34	201.77	338.34	487.48	212.17	388.56	466.64	208.82	421.92	847.61	195.61	352.94	837.79	177.71	381.23	766.76	184.02	444.09	777.01	199.37
277	1.1532	595.22	1790.5	400.47	398.87	1553.7	604.22	336.98	1584.9	146	396.02	1102.5	565.82	374.15	1055.2	212.86	167.65	1108.5	454.44	171.09	1105.5	322.96	154.45	1077.1	386.93	334.51	1178.5	176.31	367	1198.5	581.56	319.36	975.07	171.12	330.93	990.27	604.51	322.97	582.06	529.36	351.83	584.45	398.95	474.49	573.16	347.36	429.8	606.98	198.7	496.23	67.203	416.67	344.08	75.824	210.74	410.14	55.998	372.1	274.45	85.941	282.71	220.25	109.34	166.73	385.36	46.238	508.51	278.46	117.06	486.45	274.74	124.08	384.75	208.92	222.5	296.66	165.26	235.97	237.49	78.818	231.75	297.73	171.88	92.259	434.09	64.625	207.18	264.98	178.22	67.232	468.03	84.25	193.82	324.85	179.1	65.722	406.71	223.51	409.75	527.38	293.73	396.88	543.77	293.22	323.56	523.39	236.37	328.52	514.62	287.6	847.99	577.67	357.36	866.34	588.46	360.2	775.09	575.42	294.07	759.39	563.12	430.32	512.2	200.96	381.41	539.31	201.83	346.59	486.85	212.05	397.18	466.88	209.19	427.15	848.73	196.04	358.4	838.62	177.71	386.97	767.73	184.19	449.71	778.26	199.85
